<svg width="16" height="15" viewBox="0 0 16 15" fill="none" xmlns="http://www.w3.org/2000/svg">
<path d="M8.88271 10.0179C8.79629 10.0179 8.73148 10.0179 8.67746 10.0179C6.2253 10.0179 3.78395 10.0179 1.33179 10.0179C0.964501 10.0179 0.867279 9.91897 0.867279 9.54513C0.867279 6.7633 0.867279 3.97048 0.867279 1.18865C0.867279 1.15566 0.867279 1.11168 0.867279 1.07869C0.878082 0.80381 0.986106 0.682861 1.26697 0.682861C1.97993 0.682861 2.68209 0.682861 3.39506 0.682861C5.37191 0.682861 7.34876 0.682861 9.32561 0.682861C9.7145 0.682861 9.81172 0.78182 9.81172 1.17765C9.81172 3.95948 9.81172 6.75231 9.81172 9.53413C9.81172 9.67707 9.76851 9.83101 9.7037 9.95196C9.21759 10.8096 8.72067 11.6672 8.23456 12.5249C8.20216 12.5799 8.16975 12.6458 8.12654 12.7008C8.01851 12.8217 7.84567 12.8437 7.71604 12.7668C7.57561 12.6788 7.5216 12.5029 7.57561 12.3489C7.59722 12.294 7.62962 12.25 7.65123 12.195C8.04012 11.5243 8.4182 10.8646 8.80709 10.1939C8.8179 10.1389 8.8503 10.0949 8.88271 10.0179ZM1.53703 9.32522C4.07561 9.32522 6.59259 9.32522 9.13117 9.32522C9.13117 6.66434 9.13117 4.02545 9.13117 1.37557C6.59259 1.37557 4.07561 1.37557 1.53703 1.37557C1.53703 4.02545 1.53703 6.67534 1.53703 9.32522Z" fill="black"/>
<path d="M6.98149 14.2182C9.50927 14.2182 12.0154 14.2182 14.5216 14.2182C14.5216 11.5573 14.5216 8.9074 14.5216 6.24652C14.2624 6.24652 14.0139 6.24652 13.7654 6.24652C12.8148 6.24652 11.875 6.25752 10.9244 6.25752C10.6435 6.25752 10.4707 6.02662 10.5679 5.78472C10.6327 5.61979 10.7732 5.57581 10.9352 5.57581C11.6806 5.57581 12.4367 5.57581 13.1821 5.57581C13.7114 5.57581 14.2407 5.57581 14.7701 5.57581C15.0617 5.57581 15.1806 5.69675 15.1806 5.99363C15.1806 8.81944 15.1914 11.6452 15.1914 14.4711C15.1914 14.8009 15.0833 14.9219 14.7593 14.9219C12.0803 14.9329 9.40124 14.9329 6.71143 14.9439C6.41976 14.9439 6.30093 14.8229 6.30093 14.526C6.30093 13.4265 6.30093 12.327 6.30093 11.2274C6.30093 11.0295 6.38735 10.8976 6.52779 10.8536C6.75464 10.7766 6.95988 10.9306 6.95988 11.1834C6.97069 11.5683 6.95988 11.9531 6.95988 12.349C6.95988 12.9207 6.95988 13.4925 6.95988 14.0642C6.98149 14.1082 6.98149 14.1632 6.98149 14.2182Z" fill="black"/>
<path d="M12.5771 11.9531C12.5771 12.14 12.4691 12.272 12.3071 12.305C12.145 12.3379 12.0046 12.261 11.9398 12.107C11.875 11.9201 11.8102 11.7332 11.7562 11.5463C11.7346 11.4583 11.7021 11.4253 11.6049 11.4253C11.3457 11.4363 11.0864 11.4253 10.8271 11.4253C10.7407 11.4253 10.7083 11.4473 10.6867 11.5353C10.6435 11.7112 10.5895 11.8761 10.5355 12.0521C10.4707 12.261 10.2978 12.3599 10.1142 12.305C9.93054 12.25 9.84412 12.0631 9.89813 11.8541C10.2222 10.7766 10.5571 9.69905 10.8812 8.6215C10.9352 8.44558 11.054 8.34662 11.2052 8.34662C11.3565 8.34662 11.4753 8.43458 11.5293 8.61051C11.8642 9.67706 12.2099 10.7436 12.5447 11.8212C12.5663 11.8761 12.5771 11.9201 12.5771 11.9531ZM10.9352 10.7326C11.1296 10.7326 11.3133 10.7326 11.5077 10.7326C11.4105 10.4357 11.3241 10.1499 11.2268 9.86398C11.216 9.86398 11.2052 9.86398 11.1944 9.87498C11.1188 10.1499 11.0324 10.4357 10.9352 10.7326Z" fill="black"/>
<path d="M4.8642 3.83853C4.8642 3.6736 4.8642 3.51967 4.8642 3.37673C4.8642 3.12384 4.99382 2.9809 5.19907 2.9809C5.40432 2.9809 5.53395 3.12384 5.53395 3.37673C5.53395 3.51967 5.53395 3.6736 5.53395 3.83853C5.59876 3.83853 5.65278 3.83853 5.71759 3.83853C6.14969 3.83853 6.58179 3.83853 7.01389 3.83853C7.25154 3.83853 7.40278 3.97048 7.41358 4.1684C7.41358 4.37731 7.26234 4.50925 7.01389 4.50925C6.88426 4.50925 6.75463 4.50925 6.6142 4.50925C6.47376 5.22395 6.1821 5.85069 5.66358 6.40046C5.89043 6.5434 6.11728 6.67534 6.33333 6.80728C6.40895 6.85127 6.48457 6.88425 6.56018 6.91724C6.74382 7.0162 6.79784 7.20312 6.72222 7.37904C6.6358 7.54397 6.45216 7.62094 6.26852 7.52198C5.92284 7.33506 5.58796 7.12615 5.26389 6.91724C5.18827 6.86226 5.14506 6.86226 5.05864 6.91724C4.69136 7.13715 4.32407 7.34606 3.93518 7.54397C3.75154 7.64293 3.5679 7.55497 3.49228 7.37904C3.41666 7.21411 3.48148 7.02719 3.65432 6.93923C3.71913 6.90624 3.78395 6.88425 3.84876 6.84027C4.10802 6.69733 4.36728 6.55439 4.64815 6.40046C4.52932 6.25752 4.42129 6.14756 4.33487 6.02661C4.18364 5.8287 4.03241 5.61978 3.90278 5.41087C3.78395 5.22395 3.81636 5.02604 3.97839 4.91608C4.14043 4.80613 4.33487 4.8611 4.4645 5.03703C4.64815 5.28992 4.84259 5.54282 5.02623 5.79571C5.05864 5.85069 5.10185 5.89467 5.13426 5.93865C5.50154 5.61978 5.82561 5.02603 5.92284 4.50925C5.86882 4.50925 5.81481 4.50925 5.7608 4.50925C5.02623 4.50925 4.28086 4.50925 3.54629 4.50925C3.50308 4.50925 3.45987 4.50925 3.41666 4.50925C3.23302 4.49826 3.09259 4.35532 3.09259 4.1684C3.09259 3.98147 3.22222 3.83853 3.41666 3.83853C3.84876 3.82754 4.27006 3.83853 4.70216 3.83853C4.73457 3.83853 4.78858 3.83853 4.8642 3.83853Z" fill="black"/>
</svg>
